<svg id="Layer_2" data-name="Layer 2" xmlns="http://www.w3.org/2000/svg" viewBox="0 0 1019.95 264.63"><defs><style>.cls-1{fill:#82c3e0;}.cls-2{fill:#81e28d;}.cls-3{fill:#191919;}.cls-4{fill:#e5e5e5;}.cls-5{fill:#b381e2;}.cls-6{fill:#e2819d;}.cls-7{fill:#e0d982;}.cls-13,.cls-8{font-size:12px;font-family:MyriadPro-Regular, Myriad Pro;}.cls-8{fill:#0071bc;}.cls-9{letter-spacing:-0.01em;}.cls-10{letter-spacing:-0.01em;}.cls-11{letter-spacing:0em;}.cls-12{letter-spacing:0em;}.cls-13{fill:#ba0035;}</style></defs><title>Artboard 4</title><rect class="cls-1" x="468.15" y="144.99" width="88.41" height="88.41" rx="15.39" ry="15.39"/><circle class="cls-1" cx="512.35" cy="75.43" r="44.2"/><rect class="cls-2" x="330.68" y="144.99" width="88.41" height="88.41" rx="15.39" ry="15.39"/><circle class="cls-2" cx="374.89" cy="75.43" r="44.2"/><rect class="cls-3" x="55.75" y="144.99" width="88.41" height="88.41" rx="15.39" ry="15.39"/><circle class="cls-3" cx="99.95" cy="75.43" r="44.2"/><rect class="cls-4" x="193.22" y="144.99" width="88.41" height="88.41" rx="15.39" ry="15.39"/><circle class="cls-4" cx="237.42" cy="75.43" r="44.2"/><rect class="cls-5" x="605.61" y="144.99" width="88.41" height="88.41" rx="15.39" ry="15.39"/><circle class="cls-5" cx="649.82" cy="75.43" r="44.2"/><rect class="cls-6" x="743.08" y="144.99" width="88.41" height="88.41" rx="15.39" ry="15.39"/><circle class="cls-6" cx="787.28" cy="75.43" r="44.2"/><rect class="cls-7" x="880.55" y="144.99" width="88.41" height="88.41" rx="15.39" ry="15.39"/><circle class="cls-7" cx="924.75" cy="75.43" r="44.2"/><text class="cls-8" transform="translate(338.76 16.46)"><tspan class="cls-9">L</tspan><tspan x="5.5" y="0">o</tspan><tspan class="cls-10" x="12.08" y="0">r</tspan><tspan x="15.89" y="0">em ipsum dolor sit ame</tspan><tspan class="cls-11" x="133.13" y="0">t</tspan><tspan class="cls-12" x="137.06" y="0">, </tspan></text><text class="cls-13" transform="translate(486.77 16.46)"><tspan class="cls-9">L</tspan><tspan x="5.5" y="0">o</tspan><tspan class="cls-10" x="12.08" y="0">r</tspan><tspan x="15.89" y="0">em ipsum dolor sit ame</tspan><tspan class="cls-11" x="133.13" y="0">t</tspan><tspan class="cls-12" x="137.06" y="0">, </tspan></text></svg>