<svg id="Layer_2" data-name="Layer 2" xmlns="http://www.w3.org/2000/svg" xmlns:xlink="http://www.w3.org/1999/xlink" viewBox="0 0 611.37 560"><defs><style>.cls-1{fill:url(#linear-gradient);}</style><linearGradient id="linear-gradient" x1="618.73" y1="-15.49" x2="-6.8" y2="567.49" gradientUnits="userSpaceOnUse"><stop offset="0" stop-color="#b5d7ae"/><stop offset="1" stop-color="#a7d7f9"/></linearGradient></defs><title>Wiki_W</title><path class="cls-1" d="M477.74,14.35,458.92,33.16a4,4,0,0,0,0,5.62l99.68,99.68a4,4,0,0,1,1.16,2.81V419.37a4,4,0,0,1-1.27,2.91L471.57,503.1a4,4,0,0,1-5.51-.1L332.18,369.12a4,4,0,0,1,0-5.62L446.53,249.15a4,4,0,0,0,0-5.62l-18.82-18.82a4,4,0,0,0-5.62,0L307.75,339.07a4,4,0,0,1-5.62,0L187.78,224.72a4,4,0,0,0-5.62,0l-18.82,18.82a4,4,0,0,0,0,5.62L277.7,363.5a4,4,0,0,1,0,5.62L143.82,503a4,4,0,0,1-5.51.1L51.38,422.28a4,4,0,0,1-1.27-2.91V142.7a7.43,7.43,0,0,1,2.18-5.25L151,38.78a4,4,0,0,0,0-5.62L132.14,14.35a4,4,0,0,0-5.62,0L16.72,124.15A4,4,0,0,0,15.56,127V434.43a4,4,0,0,0,1.27,2.91L139.18,551.09a4,4,0,0,0,5.51-.1L302.13,393.55a4,4,0,0,1,5.62,0L465.19,551a4,4,0,0,0,5.51.1L593.05,437.34a4,4,0,0,0,1.27-2.91V127a4,4,0,0,0-1.16-2.81L483.36,14.35A4,4,0,0,0,477.74,14.35Z"/></svg>